#!OML:ASF H:\Punching\Project 1\Capture day 1\Session 1\female.ASF
:FULLY-SPECIFIED
:DEGREES
791
root -1.18243 14.5861 6.59839 15.607 -28.4867 -1.54312
lowerback -1.9207 -4.56198 -2.74067
upperback -4.965 -6.15374 0.194191
thorax -3.74177 -2.99045 1.7933
lowerneck 1.09583 12.1124 21.9893
upperneck 31.4834 17.6725 -9.56251
head 13.4508 9.43047 -5.1306
rclavicle 6.05796e-014 7.15625e-015
rhumerus 12.6263 38.2684 -81.9759
rradius 131.893
rwrist -36.6493
rhand -18.5713 -4.29988
rfingers 7.12502
rthumb 7.71891 -34.139
lclavicle 6.05796e-014 7.15625e-015
lhumerus 19.3807 -7.99071 71.5538
lradius 83.4166
lwrist 15.168
lhand -14.0304 32.9754
lfingers 7.12502
lthumb 12.0998 62.6055
rfemur -55.8779 18.1923 11.0958
rtibia 50.3304
rfoot -12.4212 6.44817
rtoes -1.56376
lfemur 23.5854 17.7753 -7.60413
ltibia 0
lfoot -14.785 -1.68104
ltoes -29.5312
792
root -1.1987 14.6016 6.58938 15.3832 -26.5976 -1.29002
lowerback -1.79013 -4.32554 -2.4585
upperback -4.88259 -5.8373 0.107512
thorax -3.77958 -2.8423 1.55647
lowerneck 0.434352 11.6452 21.4893
upperneck 31.542 16.8147 -9.17279
head 13.3275 9.02144 -5.0196
rclavicle 7.59357e-014 -4.77083e-015
rhumerus 12.472 37.5772 -82.0286
rradius 131.98
rwrist -37.0299
rhand -18.7591 -4.06525
rfingers 7.12502
rthumb 7.53771 -33.9109
lclavicle 7.59357e-014 -4.77083e-015
lhumerus 17.7088 -9.24724 72.1462
lradius 88.1563
lwrist 15.8263
lhand -13.6591 33.2778
lfingers 7.12502
lthumb 12.4578 62.8865
rfemur -55.3808 17.5898 10.8384
rtibia 50.5439
rfoot -12.808 5.19674
rtoes -1.84915
lfemur 22.9151 15.8371 -7.74159
ltibia -3.18055e-015
lfoot -14.5817 -0.782215
ltoes -29.4497
793
root -1.21705 14.617 6.57897 15.1376 -24.5746 -1.00628
lowerback -1.61436 -4.09178 -2.24101
upperback -4.80693 -5.52542 0.0342431
thorax -3.83899 -2.69338 1.37095
lowerneck -0.264432 11.1461 20.9333
upperneck 31.6502 15.8985 -8.71806
head 13.2209 8.58727 -4.88012
rclavicle 2.17669e-014 2.38542e-015
rhumerus 12.3528 36.8453 -82.0587
rradius 132.057
rwrist -37.5149
rhand -18.9089 -3.75367
rfingers 7.12502
rthumb 7.39307 -33.6045
lclavicle 2.17669e-014 2.38542e-015
lhumerus 16.0125 -10.5243 72.7484
lradius 92.6997
lwrist 16.5334
lhand -13.1935 33.4091
lfingers 7.12502
lthumb 12.9067 62.99
rfemur -54.8226 16.8859 10.5858
rtibia 50.7796
rfoot -13.2118 3.95005
rtoes -2.08878
lfemur 22.22 13.7591 -7.87739
ltibia 5.725e-014
lfoot -14.36 0.177559
ltoes -29.4498
794
root -1.23758 14.6321 6.56766 14.8878 -22.4188 -0.71067
lowerback -1.40942 -3.86323 -2.07117
upperback -4.73435 -5.22055 -0.0198236
thorax -3.90918 -2.54572 1.23161
lowerneck -1.00032 10.6211 20.3275
upperneck 31.8027 14.9371 -8.21288
head 13.1362 8.13382 -4.71617
rclavicle -4.72114e-015 2.78299e-014
rhumerus 12.2724 36.0812 -82.0549
rradius 132.145
rwrist -38.0743
rhand -18.985 -3.45804
rfingers 7.12502
rthumb 7.31967 -33.3114
lclavicle -4.72114e-015 2.78299e-014
lhumerus 14.3014 -11.8147 73.373
lradius 97.0731
lwrist 17.4139
lhand -12.7192 33.3769
lfingers 7.12502
lthumb 13.3638 62.9283
rfemur -54.2045 16.0767 10.3575
rtibia 51.0331
rfoot -13.6359 2.71878
rtoes -2.30213
lfemur 21.4975 11.5453 -7.99129
ltibia -5.40694e-014
lfoot -14.1167 1.18832
ltoes -29.5548
795
root -1.26034 14.6469 6.55591 14.6475 -20.1404 -0.420412
lowerback -1.17754 -3.6442 -1.9365
upperback -4.67357 -4.92829 -0.0446812
thorax -3.99907 -2.40231 1.1421
lowerneck -1.75118 10.0745 19.6842
upperneck 31.9898 13.9498 -7.68801
head 13.0746 7.66916 -4.53971
rclavicle -3.1408e-014 1.98785e-015
rhumerus 12.2165 35.3003 -82.0034
rradius 132.259
rwrist -38.6774
rhand -18.9724 -3.15898
rfingers 7.12502
rthumb 7.33176 -33.0119
lclavicle -3.1408e-014 1.98785e-015
lhumerus 12.5567 -13.1114 74.0287
lradius 101.318
lwrist 18.5432
lhand -12.3266 33.2314
lfingers 7.12502
lthumb 13.7422 62.7576
rfemur -53.531 15.1662 10.1688
rtibia 51.2959
rfoot -14.0811 1.52011
rtoes -2.4738
lfemur 20.7487 9.20791 -8.06268
ltibia -1.90833e-014
lfoot -13.8494 2.23229
ltoes -29.7753
796
root -1.28514 14.6609 6.54434 14.429 -17.7451 -0.146902
lowerback -0.928524 -3.43672 -1.81371
upperback -4.63276 -4.65097 -0.039455
thorax -4.11436 -2.26511 1.09014
lowerneck -2.50933 9.50633 19.0088
upperneck 32.2193 12.9413 -7.15238
head 13.0413 7.19574 -4.35487
rclavicle 4.12478e-015 -1.15295e-014
rhumerus 12.1508 34.5205 -81.9055
rradius 132.433
rwrist -39.2722
rhand -18.8917 -2.98199
rfingers 7.12502
rthumb 7.40964 -32.8322
lclavicle 4.12478e-015 -1.15295e-014
lhumerus 10.7814 -14.4069 74.7182
lradius 105.443
lwrist 19.9449
lhand -12.079 32.9998
lfingers 7.12502
lthumb 13.9808 62.5097
rfemur -52.8079 14.144 10.0352
rtibia 51.5618
rfoot -14.5457 0.372437
rtoes -2.61507
lfemur 19.9685 6.7552 -8.07576
ltibia -1.90833e-014
lfoot -13.5577 3.29208
ltoes -30.09
797
root -1.31175 14.6742 6.53306 14.2384 -15.2479 0.103644
lowerback -0.673966 -3.22258 -1.68666
upperback -4.60464 -4.36388 -0.0189363
thorax -4.24459 -2.12287 1.04995
lowerneck -3.26847 8.90479 18.3104
upperneck 32.4523 11.8913 -6.60169
head 13.0166 6.70599 -4.1643
rclavicle -2.34069e-014 3.18055e-015
rhumerus 12.0654 33.6922 -81.745
rradius 132.665
rwrist -39.8046
rhand -18.776 -2.90253
rfingers 7.12502
rthumb 7.52134 -32.7488
lclavicle -2.34069e-014 3.18055e-015
lhumerus 9.01498 -15.7324 75.4524
lradius 109.43
lwrist 21.5587
lhand -11.9946 32.7269
lfingers 7.12502
lthumb 14.0622 62.2311
rfemur -52.0423 13.0079 9.96423
rtibia 51.824
rfoot -15.0337 -0.710417
rtoes -2.68829
lfemur 19.1519 4.20238 -8.0186
ltibia 1.27222e-014
lfoot -13.2435 4.34668
ltoes -30.4516
798
root -1.33976 14.6868 6.52228 14.0852 -12.6586 0.320854
lowerback -0.419786 -3.00092 -1.53312
upperback -4.60037 -4.06534 0.0167167
thorax -4.39977 -1.97554 1.00885
lowerneck -3.9924 8.27216 17.6138
upperneck 32.6851 10.8155 -6.06547
head 12.9995 6.20756 -3.98266
rclavicle -2.20154e-014 -1.27222e-014
rhumerus 11.9223 32.8264 -81.5338
rradius 132.963
rwrist -40.2351
rhand -18.6772 -2.90454
rfingers 7.12502
rthumb 7.61669 -32.7474
lclavicle -2.20154e-014 -1.27222e-014
lhumerus 7.2797 -17.0734 76.2262
lradius 113.237
lwrist 23.3031
lhand -12.0543 32.4455
lfingers 7.12502
lthumb 14.0047 61.9538
rfemur -51.2489 11.7589 9.96488
rtibia 52.0785
rfoot -15.5332 -1.72696
rtoes -2.74057
lfemur 18.2875 1.56275 -7.87418
ltibia -1.27222e-014
lfoot -12.899 5.38076
ltoes -30.8434
